

Release info:

General
Format                                   : Matroska
Format version                           : Version 2
File size                                : 689 MiB
Duration                                 : 2h 5mn
Overall bit rate                         : 770 Kbps


Video
ID                                       : 1
Format                                   : MPEG-4 Visual
Format profile                           : Advanced Simple@L5
Format settings, BVOP                    : Yes
Format settings, QPel                    : No
Format settings, GMC                     : No warppoints
Format settings, Matrix                  : Default (H.263)
Codec ID                                 : V_MS/VFW/FOURCC / XVID
Codec ID/Hint                            : XviD
Duration                                 : 2h 5mn
Bit rate                                 : 675 Kbps
Width                                    : 608 pixels
Height                                   : 336 pixels
Display aspect ratio                     : 16:9
Frame rate mode                          : Constant
Frame rate                               : 25.000 fps
Color space                              : YUV
Chroma subsampling                       : 4:2:0
Bit depth                                : 8 bits
Scan type                                : Progressive
Compression mode                         : Lossy
Bits/(Pixel*Frame)                       : 0.132
Stream size                              : 604 MiB (88%)
Title                                    : Life of Pi DVDScr Hindi
Language                                 : Hindi
Default                                  : Yes
Forced                                   : No

Audio
ID                                       : 2
Format                                   : MPEG Audio
Format version                           : Version 1
Format profile                           : Layer 3
Mode                                     : Joint stereo
Mode extension                           : MS Stereo
Muxing mode                              : Header stripping
Codec ID                                 : A_MPEG/L3
Codec ID/Hint                            : MP3
Duration                                 : 2h 5mn
Bit rate mode                            : Constant
Bit rate                                 : 80.0 Kbps
Channel(s)                               : 2 channels
Sampling rate                            : 32.0 KHz
Compression mode                         : Lossy
Stream size                              : 71.6 MiB (10%)
Title                                    : Life of Pi DVDScr Hindi
Language                                 : Hindi
Default                                  : Yes
Forced                                   : No


Source:
credit to original movie ripper DDR (Thanks)

IMDB Info:

A young man who survives a disaster at sea is hurtled into an epic journey of adventure and discovery. While cast away, he forms an unexpected connection with another survivor ... a fearsome Bengal tiger.

Director: Ang Lee
Writers: David Magee (screenplay), Yann Martel (novel)
Stars: Suraj Sharma, Irrfan Khan and Adil Hussain 

Genres: Adventure | Drama
 
http://www.imdb.com/title/tt0454876/

Screen Shot:
 
http://www.shotpix.com/images/52719223611156014224.png 
http://www.shotpix.com/images/70276737527378759084.png 
http://www.shotpix.com/images/70243549913500216371.png 
http://www.shotpix.com/images/75303821829643326127.png 
http://www.shotpix.com/images/55705286909243782953.png 
http://www.shotpix.com/images/48247774856532292370.png